<svg width="68" height="68" viewBox="0 0 68 68" fill="none" xmlns="http://www.w3.org/2000/svg">
<path d="M13.5 51C16.3333 48.8334 19.5 47.125 23 45.875C26.5 44.625 30.1667 44 34 44C37.8333 44 41.5 44.625 45 45.875C48.5 47.125 51.6667 48.8334 54.5 51C56.4444 48.7222 57.9583 46.1389 59.0417 43.25C60.125 40.3611 60.6667 37.2778 60.6667 34C60.6667 26.6111 58.0694 20.3195 52.875 15.125C47.6805 9.93058 41.3889 7.33335 34 7.33335C26.6111 7.33335 20.3194 9.93058 15.125 15.125C9.93055 20.3195 7.33332 26.6111 7.33332 34C7.33332 37.2778 7.87499 40.3611 8.95832 43.25C10.0417 46.1389 11.5555 48.7222 13.5 51ZM34 37.3334C30.7222 37.3334 27.9583 36.2084 25.7083 33.9584C23.4583 31.7084 22.3333 28.9445 22.3333 25.6667C22.3333 22.3889 23.4583 19.625 25.7083 17.375C27.9583 15.125 30.7222 14 34 14C37.2778 14 40.0417 15.125 42.2917 17.375C44.5417 19.625 45.6667 22.3889 45.6667 25.6667C45.6667 28.9445 44.5417 31.7084 42.2917 33.9584C40.0417 36.2084 37.2778 37.3334 34 37.3334ZM34 67.3334C29.3889 67.3334 25.0555 66.4584 21 64.7084C16.9444 62.9584 13.4167 60.5834 10.4167 57.5834C7.41666 54.5834 5.04166 51.0556 3.29166 47C1.54166 42.9445 0.666656 38.6111 0.666656 34C0.666656 29.3889 1.54166 25.0556 3.29166 21C5.04166 16.9445 7.41666 13.4167 10.4167 10.4167C13.4167 7.41669 16.9444 5.04169 21 3.29169C25.0555 1.54169 29.3889 0.666687 34 0.666687C38.6111 0.666687 42.9444 1.54169 47 3.29169C51.0555 5.04169 54.5833 7.41669 57.5833 10.4167C60.5833 13.4167 62.9583 16.9445 64.7083 21C66.4583 25.0556 67.3333 29.3889 67.3333 34C67.3333 38.6111 66.4583 42.9445 64.7083 47C62.9583 51.0556 60.5833 54.5834 57.5833 57.5834C54.5833 60.5834 51.0555 62.9584 47 64.7084C42.9444 66.4584 38.6111 67.3334 34 67.3334ZM34 60.6667C36.9444 60.6667 39.7222 60.2361 42.3333 59.375C44.9444 58.5139 47.3333 57.2778 49.5 55.6667C47.3333 54.0556 44.9444 52.8195 42.3333 51.9584C39.7222 51.0972 36.9444 50.6667 34 50.6667C31.0555 50.6667 28.2778 51.0972 25.6667 51.9584C23.0555 52.8195 20.6667 54.0556 18.5 55.6667C20.6667 57.2778 23.0555 58.5139 25.6667 59.375C28.2778 60.2361 31.0555 60.6667 34 60.6667ZM34 30.6667C35.4444 30.6667 36.6389 30.1945 37.5833 29.25C38.5278 28.3056 39 27.1111 39 25.6667C39 24.2222 38.5278 23.0278 37.5833 22.0834C36.6389 21.1389 35.4444 20.6667 34 20.6667C32.5555 20.6667 31.3611 21.1389 30.4167 22.0834C29.4722 23.0278 29 24.2222 29 25.6667C29 27.1111 29.4722 28.3056 30.4167 29.25C31.3611 30.1945 32.5555 30.6667 34 30.6667Z" fill="white"/>
</svg>
