<svg width="50" height="50" viewBox="0 0 50 50" fill="none" xmlns="http://www.w3.org/2000/svg">
    <mask id="mask0_47_36" style="mask-type:alpha" maskUnits="userSpaceOnUse" x="0" y="0" width="50" height="50">
        <rect width="50" height="50" fill="#D9D9D9" />
    </mask>
    <g mask="url(#mask0_47_36)">
        <path
            d="M22.9167 35.4167H27.0834V27.0833H35.4167V22.9167H27.0834V14.5833H22.9167V22.9167H14.5834V27.0833H22.9167V35.4167ZM25 45.8333C22.1181 45.8333 19.4097 45.2864 16.875 44.1927C14.3403 43.0989 12.1354 41.6146 10.2604 39.7396C8.38544 37.8646 6.90106 35.6597 5.80731 33.125C4.71356 30.5903 4.16669 27.8819 4.16669 25C4.16669 22.118 4.71356 19.4097 5.80731 16.875C6.90106 14.3403 8.38544 12.1354 10.2604 10.2604C12.1354 8.38541 14.3403 6.90103 16.875 5.80728C19.4097 4.71353 22.1181 4.16666 25 4.16666C27.882 4.16666 30.5903 4.71353 33.125 5.80728C35.6597 6.90103 37.8646 8.38541 39.7396 10.2604C41.6146 12.1354 43.099 14.3403 44.1927 16.875C45.2865 19.4097 45.8334 22.118 45.8334 25C45.8334 27.8819 45.2865 30.5903 44.1927 33.125C43.099 35.6597 41.6146 37.8646 39.7396 39.7396C37.8646 41.6146 35.6597 43.0989 33.125 44.1927C30.5903 45.2864 27.882 45.8333 25 45.8333ZM25 41.6667C29.6528 41.6667 33.5938 40.0521 36.8229 36.8229C40.0521 33.5937 41.6667 29.6528 41.6667 25C41.6667 20.3472 40.0521 16.4062 36.8229 13.1771C33.5938 9.94791 29.6528 8.33332 25 8.33332C20.3472 8.33332 16.4063 9.94791 13.1771 13.1771C9.94794 16.4062 8.33335 20.3472 8.33335 25C8.33335 29.6528 9.94794 33.5937 13.1771 36.8229C16.4063 40.0521 20.3472 41.6667 25 41.6667Z"
            fill="#FFFFFF" />
    </g>
</svg>