<svg width="80" height="80" viewBox="0 0 80 80" fill="none" xmlns="http://www.w3.org/2000/svg">
    <mask id="mask0_101_37" style="mask-type:alpha" maskUnits="userSpaceOnUse" x="0" y="0" width="80" height="80">
        <rect width="80" height="80" fill="#D9D9D9" />
    </mask>
    <g mask="url(#mask0_101_37)">
        <path
            d="M39.9999 73.3333C35.8333 73.3333 31.9305 72.5417 28.2916 70.9583C24.6527 69.375 21.4861 67.2361 18.7916 64.5417C16.0972 61.8472 13.9583 58.6806 12.3749 55.0417C10.7916 51.4028 9.99994 47.5 9.99994 43.3333C9.99994 39.1667 10.7916 35.2639 12.3749 31.625C13.9583 27.9861 16.0972 24.8195 18.7916 22.125C21.4861 19.4306 24.6527 17.2917 28.2916 15.7083C31.9305 14.125 35.8333 13.3333 39.9999 13.3333C44.1666 13.3333 48.0694 14.125 51.7083 15.7083C55.3472 17.2917 58.5138 19.4306 61.2083 22.125C63.9027 24.8195 66.0416 27.9861 67.6249 31.625C69.2083 35.2639 69.9999 39.1667 69.9999 43.3333C69.9999 47.5 69.2083 51.4028 67.6249 55.0417C66.0416 58.6806 63.9027 61.8472 61.2083 64.5417C58.5138 67.2361 55.3472 69.375 51.7083 70.9583C48.0694 72.5417 44.1666 73.3333 39.9999 73.3333ZM49.3333 57.3333L53.9999 52.6667L43.3333 42V26.6667H36.6666V44.6667L49.3333 57.3333ZM18.6666 7.83334L23.3333 12.5L9.16661 26.6667L4.49994 22L18.6666 7.83334ZM61.3333 7.83334L75.4999 22L70.8333 26.6667L56.6666 12.5L61.3333 7.83334ZM39.9999 66.6667C46.4999 66.6667 52.0138 64.4028 56.5416 59.875C61.0694 55.3472 63.3333 49.8333 63.3333 43.3333C63.3333 36.8333 61.0694 31.3195 56.5416 26.7917C52.0138 22.2639 46.4999 20 39.9999 20C33.4999 20 27.9861 22.2639 23.4583 26.7917C18.9305 31.3195 16.6666 36.8333 16.6666 43.3333C16.6666 49.8333 18.9305 55.3472 23.4583 59.875C27.9861 64.4028 33.4999 66.6667 39.9999 66.6667Z"
            fill="#FFFFFF" />
    </g>
</svg>