<svg width="80" height="81" viewBox="0 0 80 81" fill="none" xmlns="http://www.w3.org/2000/svg">
    <mask id="mask0_101_31" style="mask-type:alpha" maskUnits="userSpaceOnUse" x="0" y="0" width="80" height="81">
        <rect y="0.568237" width="80" height="80" fill="#D9D9D9" />
    </mask>
    <g mask="url(#mask0_101_31)">
        <path
            d="M16.6667 73.9016C14.8333 73.9016 13.2639 73.2488 11.9583 71.9433C10.6528 70.6377 10 69.0683 10 67.2349V20.5683C10 18.7349 10.6528 17.1655 11.9583 15.8599C13.2639 14.5544 14.8333 13.9016 16.6667 13.9016H20V7.23492H26.6667V13.9016H53.3333V7.23492H60V13.9016H63.3333C65.1667 13.9016 66.7361 14.5544 68.0417 15.8599C69.3472 17.1655 70 18.7349 70 20.5683V67.2349C70 69.0683 69.3472 70.6377 68.0417 71.9433C66.7361 73.2488 65.1667 73.9016 63.3333 73.9016H16.6667ZM16.6667 67.2349H63.3333V33.9016H16.6667V67.2349ZM16.6667 27.2349H63.3333V20.5683H16.6667V27.2349ZM40 47.2349C39.0556 47.2349 38.2639 46.9155 37.625 46.2766C36.9861 45.6377 36.6667 44.846 36.6667 43.9016C36.6667 42.9571 36.9861 42.1655 37.625 41.5266C38.2639 40.8877 39.0556 40.5683 40 40.5683C40.9444 40.5683 41.7361 40.8877 42.375 41.5266C43.0139 42.1655 43.3333 42.9571 43.3333 43.9016C43.3333 44.846 43.0139 45.6377 42.375 46.2766C41.7361 46.9155 40.9444 47.2349 40 47.2349ZM26.6667 47.2349C25.7222 47.2349 24.9306 46.9155 24.2917 46.2766C23.6528 45.6377 23.3333 44.846 23.3333 43.9016C23.3333 42.9571 23.6528 42.1655 24.2917 41.5266C24.9306 40.8877 25.7222 40.5683 26.6667 40.5683C27.6111 40.5683 28.4028 40.8877 29.0417 41.5266C29.6806 42.1655 30 42.9571 30 43.9016C30 44.846 29.6806 45.6377 29.0417 46.2766C28.4028 46.9155 27.6111 47.2349 26.6667 47.2349ZM53.3333 47.2349C52.3889 47.2349 51.5972 46.9155 50.9583 46.2766C50.3194 45.6377 50 44.846 50 43.9016C50 42.9571 50.3194 42.1655 50.9583 41.5266C51.5972 40.8877 52.3889 40.5683 53.3333 40.5683C54.2778 40.5683 55.0694 40.8877 55.7083 41.5266C56.3472 42.1655 56.6667 42.9571 56.6667 43.9016C56.6667 44.846 56.3472 45.6377 55.7083 46.2766C55.0694 46.9155 54.2778 47.2349 53.3333 47.2349ZM40 60.5683C39.0556 60.5683 38.2639 60.2488 37.625 59.6099C36.9861 58.971 36.6667 58.1794 36.6667 57.2349C36.6667 56.2905 36.9861 55.4988 37.625 54.8599C38.2639 54.221 39.0556 53.9016 40 53.9016C40.9444 53.9016 41.7361 54.221 42.375 54.8599C43.0139 55.4988 43.3333 56.2905 43.3333 57.2349C43.3333 58.1794 43.0139 58.971 42.375 59.6099C41.7361 60.2488 40.9444 60.5683 40 60.5683ZM26.6667 60.5683C25.7222 60.5683 24.9306 60.2488 24.2917 59.6099C23.6528 58.971 23.3333 58.1794 23.3333 57.2349C23.3333 56.2905 23.6528 55.4988 24.2917 54.8599C24.9306 54.221 25.7222 53.9016 26.6667 53.9016C27.6111 53.9016 28.4028 54.221 29.0417 54.8599C29.6806 55.4988 30 56.2905 30 57.2349C30 58.1794 29.6806 58.971 29.0417 59.6099C28.4028 60.2488 27.6111 60.5683 26.6667 60.5683ZM53.3333 60.5683C52.3889 60.5683 51.5972 60.2488 50.9583 59.6099C50.3194 58.971 50 58.1794 50 57.2349C50 56.2905 50.3194 55.4988 50.9583 54.8599C51.5972 54.221 52.3889 53.9016 53.3333 53.9016C54.2778 53.9016 55.0694 54.221 55.7083 54.8599C56.3472 55.4988 56.6667 56.2905 56.6667 57.2349C56.6667 58.1794 56.3472 58.971 55.7083 59.6099C55.0694 60.2488 54.2778 60.5683 53.3333 60.5683Z"
            fill="#FFFFFF" />
    </g>
</svg>