<svg width="80" height="80" viewBox="0 0 80 80" fill="none" xmlns="http://www.w3.org/2000/svg">
    <mask id="mask0_101_55" style="mask-type:alpha" maskUnits="userSpaceOnUse" x="0" y="0" width="80" height="80">
        <rect width="80" height="80" fill="#D9D9D9" />
    </mask>
    <g mask="url(#mask0_101_55)">
        <path
            d="M51 55.6667L55.6667 51L43.3334 38.6667V23.3333H36.6667V41.3333L51 55.6667ZM40 73.3333C35.3889 73.3333 31.0556 72.4583 27 70.7083C22.9445 68.9583 19.4167 66.5833 16.4167 63.5833C13.4167 60.5833 11.0417 57.0555 9.29169 53C7.54169 48.9444 6.66669 44.6111 6.66669 40C6.66669 35.3889 7.54169 31.0555 9.29169 27C11.0417 22.9444 13.4167 19.4167 16.4167 16.4167C19.4167 13.4167 22.9445 11.0417 27 9.29166C31.0556 7.54166 35.3889 6.66666 40 6.66666C44.6111 6.66666 48.9445 7.54166 53 9.29166C57.0556 11.0417 60.5834 13.4167 63.5834 16.4167C66.5834 19.4167 68.9584 22.9444 70.7084 27C72.4584 31.0555 73.3334 35.3889 73.3334 40C73.3334 44.6111 72.4584 48.9444 70.7084 53C68.9584 57.0555 66.5834 60.5833 63.5834 63.5833C60.5834 66.5833 57.0556 68.9583 53 70.7083C48.9445 72.4583 44.6111 73.3333 40 73.3333ZM40 66.6667C47.3889 66.6667 53.6806 64.0694 58.875 58.875C64.0695 53.6805 66.6667 47.3889 66.6667 40C66.6667 32.6111 64.0695 26.3194 58.875 21.125C53.6806 15.9305 47.3889 13.3333 40 13.3333C32.6111 13.3333 26.3195 15.9305 21.125 21.125C15.9306 26.3194 13.3334 32.6111 13.3334 40C13.3334 47.3889 15.9306 53.6805 21.125 58.875C26.3195 64.0694 32.6111 66.6667 40 66.6667Z"
            fill="#FFFFFF" />
    </g>
</svg>