<svg width="50" height="50" viewBox="0 0 50 50" fill="none" xmlns="http://www.w3.org/2000/svg">
    <mask id="mask0_86_49" style="mask-type:alpha" maskUnits="userSpaceOnUse" x="0" y="0" width="50" height="50">
        <rect width="50" height="50" fill="#D9D9D9" />
    </mask>
    <g mask="url(#mask0_86_49)">
        <path
            d="M25 25C26.1458 25 27.1267 24.592 27.9427 23.776C28.7587 22.9601 29.1666 21.9792 29.1666 20.8333C29.1666 19.6875 28.7587 18.7066 27.9427 17.8906C27.1267 17.0746 26.1458 16.6667 25 16.6667C23.8541 16.6667 22.8732 17.0746 22.0573 17.8906C21.2413 18.7066 20.8333 19.6875 20.8333 20.8333C20.8333 21.9792 21.2413 22.9601 22.0573 23.776C22.8732 24.592 23.8541 25 25 25ZM25 40.3125C29.2361 36.4236 32.3785 32.8906 34.4271 29.7135C36.4757 26.5364 37.5 23.7153 37.5 21.25C37.5 17.4653 36.2934 14.3663 33.8802 11.9531C31.467 9.53992 28.5069 8.33332 25 8.33332C21.493 8.33332 18.533 9.53992 16.1198 11.9531C13.7066 14.3663 12.5 17.4653 12.5 21.25C12.5 23.7153 13.5243 26.5364 15.5729 29.7135C17.6215 32.8906 20.7639 36.4236 25 40.3125ZM25 45.8333C19.4097 41.0764 15.2344 36.658 12.4739 32.5781C9.71352 28.4983 8.33331 24.7222 8.33331 21.25C8.33331 16.0417 10.0087 11.8924 13.3594 8.80207C16.71 5.7118 20.5903 4.16666 25 4.16666C29.4097 4.16666 33.2899 5.7118 36.6406 8.80207C39.9913 11.8924 41.6666 16.0417 41.6666 21.25C41.6666 24.7222 40.2864 28.4983 37.526 32.5781C34.7656 36.658 30.5903 41.0764 25 45.8333Z"
            fill="#FFFFFF" />
    </g>
</svg>