<svg width="60" height="60" viewBox="0 0 60 60" fill="none" xmlns="http://www.w3.org/2000/svg">
    <path
        d="M40 60L20 53L4.5 59C3.38889 59.4444 2.36111 59.3194 1.41667 58.625C0.472222 57.9306 0 57 0 55.8333V9.16667C0 8.44444 0.208333 7.80556 0.625 7.25C1.04167 6.69444 1.61111 6.27778 2.33333 6L20 0L40 7L55.5 1C56.6111 0.555556 57.6389 0.680556 58.5833 1.375C59.5278 2.06944 60 3 60 4.16667V50.8333C60 51.5556 59.7917 52.1944 59.375 52.75C58.9583 53.3056 58.3889 53.7222 57.6667 54L40 60ZM36.6667 51.8333V12.8333L23.3333 8.16667V47.1667L36.6667 51.8333ZM43.3333 51.8333L53.3333 48.5V9L43.3333 12.8333V51.8333ZM6.66667 51L16.6667 47.1667V8.16667L6.66667 11.5V51Z"
        fill="white" />
</svg>