<svg width="80" height="80" viewBox="0 0 80 80" fill="none" xmlns="http://www.w3.org/2000/svg">
<rect width="80" height="80" fill="#1E1E1E"/>
<g id="Frame 1">
<rect width="442" height="869" transform="translate(-54 -217)" fill="white"/>
<rect id="Rectangle 19" x="-52" y="-177" width="390" height="448" fill="#1F448B"/>
<g id="map">
<mask id="mask0_0_1" style="mask-type:alpha" maskUnits="userSpaceOnUse" x="0" y="0" width="80" height="80">
<rect id="Bounding box" width="80" height="80" fill="#D9D9D9"/>
</mask>
<g mask="url(#mask0_0_1)">
<path id="map_2" d="M50 70L30 63L14.5 69C13.3889 69.4444 12.3611 69.3194 11.4167 68.625C10.4722 67.9306 10 67 10 65.8333V19.1667C10 18.4444 10.2083 17.8056 10.625 17.25C11.0417 16.6944 11.6111 16.2778 12.3333 16L30 10L50 17L65.5 11C66.6111 10.5556 67.6389 10.6806 68.5833 11.375C69.5278 12.0694 70 13 70 14.1667V60.8333C70 61.5556 69.7917 62.1944 69.375 62.75C68.9583 63.3056 68.3889 63.7222 67.6667 64L50 70ZM46.6667 61.8333V22.8333L33.3333 18.1667V57.1667L46.6667 61.8333ZM53.3333 61.8333L63.3333 58.5V19L53.3333 22.8333V61.8333ZM16.6667 61L26.6667 57.1667V18.1667L16.6667 21.5V61Z" fill="white"/>
</g>
</g>
<g id="scuba_diving">
<mask id="mask1_0_1" style="mask-type:alpha" maskUnits="userSpaceOnUse" x="-9" y="-73" width="80" height="80">
<rect id="Bounding box_2" x="-9" y="-73" width="80" height="80" fill="#D9D9D9"/>
</mask>
<g mask="url(#mask1_0_1)">
<path id="scuba_diving_2" d="M4.33331 3.66666L-1.00002 -0.333344L8.49998 -13L11.0833 -27.8333C11.25 -29.1667 11.7778 -30.3472 12.6666 -31.375C13.5555 -32.4028 14.6944 -33.0833 16.0833 -33.4167L47.6666 -43L54.3333 -56.3333L64.3333 -66.3333L67.6666 -63L59.3333 -53.3333L54.3333 -38L37.6666 -26.3333L18.1666 -20.1667L14.3333 -9.66668L4.33331 3.66666ZM0.99998 -23C-0.833354 -23 -2.4028 -23.6528 -3.70835 -24.9583C-5.01391 -26.2639 -5.66669 -27.8333 -5.66669 -29.6667C-5.66669 -31.5 -5.01391 -33.0695 -3.70835 -34.375C-2.4028 -35.6806 -0.833354 -36.3333 0.99998 -36.3333C2.83331 -36.3333 4.40276 -35.6806 5.70831 -34.375C7.01387 -33.0695 7.66665 -31.5 7.66665 -29.6667C7.66665 -27.8333 7.01387 -26.2639 5.70831 -24.9583C4.40276 -23.6528 2.83331 -23 0.99998 -23ZM20.6666 -39.3333C19.3333 -38.9445 18.0694 -39.0972 16.875 -39.7917C15.6805 -40.4861 14.8889 -41.5 14.5 -42.8333C14.1111 -44.1667 14.2639 -45.4445 14.9583 -46.6667C15.6528 -47.8889 16.6666 -48.6667 18 -49L33.1666 -53L35.75 -43.3333L20.6666 -39.3333Z" fill="white"/>
</g>
</g>
</g>
</svg>
