<svg width="74" height="71" viewBox="0 0 74 71" fill="none" xmlns="http://www.w3.org/2000/svg">
<path d="M10.3333 70.6667L5.00001 66.6667L14.5 54L17.0833 39.1667C17.25 37.8334 17.7778 36.6528 18.6667 35.625C19.5556 34.5972 20.6945 33.9167 22.0833 33.5834L53.6667 24L60.3333 10.6667L70.3333 0.666687L73.6667 4.00002L65.3333 13.6667L60.3333 29L43.6667 40.6667L24.1667 46.8334L20.3333 57.3334L10.3333 70.6667ZM7.00001 44C5.16668 44 3.59723 43.3472 2.29168 42.0417C0.986121 40.7361 0.333344 39.1667 0.333344 37.3334C0.333344 35.5 0.986121 33.9306 2.29168 32.625C3.59723 31.3195 5.16668 30.6667 7.00001 30.6667C8.83334 30.6667 10.4028 31.3195 11.7083 32.625C13.0139 33.9306 13.6667 35.5 13.6667 37.3334C13.6667 39.1667 13.0139 40.7361 11.7083 42.0417C10.4028 43.3472 8.83334 44 7.00001 44ZM26.6667 27.6667C25.3333 28.0556 24.0695 27.9028 22.875 27.2084C21.6806 26.5139 20.8889 25.5 20.5 24.1667C20.1111 22.8334 20.2639 21.5556 20.9583 20.3334C21.6528 19.1111 22.6667 18.3334 24 18L39.1667 14L41.75 23.6667L26.6667 27.6667Z" fill="white"/>
</svg>
